PathFileType	4	(X/Y/Z)	2014001\dynamic\2014001_C3_04.trc
DataRate	CameraRate	NumFrames	NumMarkers	Units	OrigDataRate	OrigDataStartFrame	OrigNumFrames
100.000000	100.000000	4	52	mm	100.000000	66	178
Frame#	Time	L_IAS			L_IPS			R_IPS			R_IAS			L_FTC			L_FLE			L_FME			L_FAX			L_TTC			L_FAL			L_TAM			L_FCC			L_FM1			L_FM2			L_FM5			R_FTC			R_FLE			R_FME			R_FAX			R_TTC			R_FAL			R_TAM			R_FCC			R_FM1			R_FM2			R_FM5			CV7			TV10			SXS			SJN			L_SIA			L_SRS			L_SAA			L_SAE			L_HLE			L_HME			L_UOA			L_RSP			L_UHE			L_HM2			L_HM5			R_SIA			R_SRS			R_SAA			R_SAE			R_HLE			R_HME			R_UOA			R_RSP			R_UHE			R_HM2			R_HM5			
		X1	Y1	Z1	X2	Y2	Z2	X3	Y3	Z3	X4	Y4	Z4	X5	Y5	Z5	X6	Y6	Z6	X7	Y7	Z7	X8	Y8	Z8	X9	Y9	Z9	X10	Y10	Z10	X11	Y11	Z11	X12	Y12	Z12	X13	Y13	Z13	X14	Y14	Z14	X15	Y15	Z15	X16	Y16	Z16	X17	Y17	Z17	X18	Y18	Z18	X19	Y19	Z19	X20	Y20	Z20	X21	Y21	Z21	X22	Y22	Z22	X23	Y23	Z23	X24	Y24	Z24	X25	Y25	Z25	X26	Y26	Z26	X27	Y27	Z27	X28	Y28	Z28	X29	Y29	Z29	X30	Y30	Z30	X31	Y31	Z31	X32	Y32	Z32	X33	Y33	Z33	X34	Y34	Z34	X35	Y35	Z35	X36	Y36	Z36	X37	Y37	Z37	X38	Y38	Z38	X39	Y39	Z39	X40	Y40	Z40	X41	Y41	Z41	X42	Y42	Z42	X43	Y43	Z43	X44	Y44	Z44	X45	Y45	Z45	X46	Y46	Z46	X47	Y47	Z47	X48	Y48	Z48	X49	Y49	Z49	X50	Y50	Z50	X51	Y51	Z51	X52	Y52	Z52	

67	0.66	69.6381530761719	845.7326660156255	-219.2634735107423	159.1745147705079	888.4859008789067	-46.82809829711915	250.0185394287111	880.0564575195317	-50.96939086914065	308.1577453613282	859.1552124023442	-236.1699829101564	14.90657234191895	772.6245727539067	-124.8195343017579	44.34523391723634	434.751647949219	-20.50880432128907	155.9058990478516	406.9326171875002	-48.85334014892581	42.82573699951173	387.9009704589846	26.91646766662599	81.41260528564456	337.2203369140626	-22.62945365905762	84.37032318115237	121.6287002563477	212.5209808349611	169.5593414306641	117.6112365722657	180.0103912353516	134.3762512207032	105.0756454467774	263.2868957519532	157.5932922363282	26.23160934448244	106.7616882324219	96.25175476074224	32.45148849487306	96.82129669189459	55.28168487548831	27.68596649169923	152.1195220947266	375.9747619628907	758.2351074218752	-158.1532897949219	348.852020263672	437.3445434570315	-306.4280700683595	229.9887084960939	430.1519775390627	-322.7449951171876	353.1687927246095	370.8812255859376	-307.8240966796876	303.2930297851564	381.3623657226564	-372.976776123047	315.0374450683595	59.41438674926761	-357.9200744628907	234.6386718750001	84.20452880859378	-395.3072814941409	255.0685424804689	16.17857360839844	-325.3010864257814	255.9830932617189	46.07403564453126	-509.7945861816409	315.1627807617189	50.43160247802737	-504.2814941406252	350.3355102539064	24.16444015502931	-455.3568420410159	217.2042999267579	1348.526733398438	-77.14131927490237	198.6034240722657	1118.077514648438	-19.80815887451173	205.1499328613282	1127.1767578125	-256.2763671875001	219.0731658935548	1288.950439453125	-210.1822357177736	101.0219726562501	1164.337280273438	-25.28645324707033	119.382797241211	1294.379272460938	-42.22025299072267	17.30726432800294	1299.549438476563	-128.6450500488282	40.98974227905275	1310.892700195313	-165.5926666259766	-61.94863891601565	1038.272338867188	-205.5077362060548	3.103406667709352	989.971313476563	-174.2043151855469	-47.71711730957033	988.9758911132817	-181.7495269775391	27.67946243286134	879.3266601562505	-381.1814880371095	-47.04653930664064	857.8549804687505	-370.8231201171876	39.68551635742189	833.844360351563	-453.5427856445315	-40.97222137451173	790.202758789063	-410.6521606445315	306.2322082519532	1151.356689453125	-5.626340389251711	295.3333129882814	1275.200317382813	-32.68642425537111	403.5073242187502	1266.34375	-100.7011260986329	398.0165100097659	1271.775024414063	-150.973129272461	441.5970458984377	972.921264648438	-71.03093719482425	358.9503479003907	963.5757446289067	-57.61346054077151	403.7266540527346	957.7974243164067	-45.29586410522462	422.8931884765627	750.350524902344	-131.9887237548829	473.3868408203127	759.1499633789065	-69.13191223144534	438.0747375488284	655.1418457031252	-137.9468231201172	467.7345886230471	682.7759399414065	-44.71935272216798	
68	0.67	72.56224060058597	845.889038085938	-233.3226776123048	160.8084716796876	888.7913208007817	-60.54445266723636	251.8135070800782	880.8608398437505	-64.39211273193362	310.8773803710939	860.5713500976567	-249.6509246826173	17.44601821899415	772.183227539063	-139.1251068115235	43.8113250732422	434.7339477539065	-35.66182708740236	155.3899993896485	405.2207031250002	-65.24414825439456	42.46746063232423	389.2338867187502	13.00513172149659	79.87664031982425	336.4553833007814	-35.6576385498047	83.9230880737305	127.9607009887696	205.729949951172	168.1880187988282	122.4178619384766	171.8526153564454	134.6112518310547	114.211784362793	255.9611053466798	157.5207519531251	26.74068832397462	106.1638259887696	96.17714691162115	32.2701873779297	96.57052612304693	55.7381286621094	29.7701759338379	150.7157135009766	378.495574951172	759.6853637695315	-171.7478637695313	350.3746643066407	438.2865905761721	-319.7976074218751	231.9204406738282	431.5173645019534	-335.873260498047	354.6487426757814	371.6040039062501	-320.202850341797	304.5304260253907	380.873260498047	-385.2335510253909	315.3555908203126	58.82933044433597	-360.287322998047	234.7294311523439	82.44793701171878	-398.0350646972659	255.6018218994142	16.83064651489259	-325.4730834960939	254.7337799072267	39.86597061157228	-511.615661621094	314.5328369140626	44.36903381347658	-507.3074951171877	350.8167419433595	20.78932762145997	-456.5256958007815	220.4375457763673	1348.764038085938	-88.87935638427737	201.4482727050782	1117.99658203125	-32.48749923706056	207.8094940185548	1128.397583007813	-269.0031738281251	221.706268310547	1289.91015625	-222.2447967529298	104.4541549682618	1164.2958984375	-37.10802078247072	122.7722396850587	1294.521118164063	-53.53005218505862	20.32503700256348	1299.892944335938	-139.2916107177735	43.54712677001955	1311.468139648438	-176.4272155761719	-59.33563995361331	1038.220092773438	-213.3290405273439	6.2412543296814	990.3588867187505	-182.5481872558594	-44.55376434326173	989.197631835938	-189.4324798583985	28.36216354370119	876.6191406250005	-387.9400939941409	-46.37345504760744	855.6405639648442	-376.6512145996095	39.6301612854004	830.0791625976567	-459.7112731933596	-40.93735885620119	787.4552612304692	-415.6563110351565	309.7142028808595	1151.328979492188	-18.57114410400391	298.7762756347657	1275.237915039063	-45.06515884399415	406.6580810546877	1266.671020507813	-113.6715316772462	400.9518737792971	1272.2783203125	-163.8607177734376	443.9368896484377	973.0690917968755	-85.11557769775393	361.3160705566407	964.0381469726567	-71.24821472167972	406.1527404785159	958.2128906250005	-59.14191055297854	424.4802246093752	750.409118652344	-144.9980621337891	475.4711914062502	759.443298339844	-82.56458282470706	439.0187683105471	654.8850097656252	-150.1410064697266	469.7256469726565	683.329528808594	-57.42276382446292	
69	0.68	75.63684082031253	846.2421264648442	-247.3218688964845	162.4814453125001	889.169067382813	-74.17727661132815	253.5989990234376	881.780883789063	-77.66974639892581	313.7515563964845	862.0592651367192	-262.919647216797	20.02893257141114	771.7837524414067	-153.4698181152344	43.25219345092775	434.5810852050784	-51.71998596191409	154.7025604248047	403.3256530761721	-82.7505798339844	42.0272674560547	390.4960937500002	-1.942218065261842	78.28787231445315	335.5690917968751	-49.56612014770511	83.59480285644534	134.5382690429688	197.6743011474611	166.9235229492188	127.3382720947266	162.4957580566407	135.0435638427735	123.7485580444337	247.2265167236329	157.348373413086	27.50709342956544	104.9762496948243	96.03408813476568	32.33483123779298	95.8677673339844	56.16652297973636	32.5090789794922	148.6234436035157	381.0473632812501	761.1691894531252	-184.9907989501954	351.9304809570314	439.0718383789065	-332.5572204589845	233.8282775878907	432.7758789062502	-348.6394042968751	356.1304931640626	372.2568969726564	-331.958221435547	305.883026123047	380.3464660644532	-396.8822021484377	315.6579589843751	58.56256484985354	-362.4491577148439	234.8193206787111	81.11159515380862	-400.4548950195315	256.1819152832032	17.59140205383301	-325.7228393554689	253.4934844970704	34.6390724182129	-513.1281738281252	313.937469482422	39.39062118530275	-510.0402526855471	351.4122314453126	18.30817413330079	-457.5345153808596	223.6274566650392	1349.182739257813	-100.5638961791993	204.2401428222657	1118.119873046875	-45.10670852661134	210.4166259765626	1129.845336914063	-281.6945800781251	224.2922210693361	1291.104858398438	-234.2495269775392	107.7862701416016	1164.455078125	-48.93559646606448	126.1082305908204	1294.841552734375	-64.79804992675784	23.30407524108887	1300.478881835938	-149.8765411376954	46.04946899414064	1312.292602539063	-187.1911163330079	-56.688835144043	1038.361206054688	-220.8738403320314	9.500936508178714	991.0065917968755	-190.7236785888672	-41.32091903686525	989.7277832031255	-196.8146209716798	28.86177444458009	873.7834472656255	-394.2081604003909	-45.85353469848634	853.3378295898442	-381.8142089843751	39.28816986083986	826.0239257812505	-465.2897033691409	-41.11451721191408	784.574096679688	-419.8684692382815	313.1766357421876	1151.487182617188	-31.53422164916994	302.1570739746095	1275.448608398438	-57.40764617919925	409.7457580566409	1267.237426757813	-126.6095428466797	403.812927246094	1273.03857421875	-176.710433959961	446.2871093750002	973.415161132813	-99.47865295410162	363.7407531738282	964.6926269531255	-85.04691314697268	408.652038574219	958.7952270507817	-73.1996765136719	426.131530761719	750.7508544921877	-158.5167388916016	477.6947021484377	759.9808349609377	-96.55158996582037	440.0075988769534	654.915954589844	-162.8945312500001	471.8730468750002	684.108093261719	-70.71638488769534	
70	0.6900000000000001	78.79579162597659	846.7890014648442	-261.1562805175782	164.2411193847657	889.5981445312505	-87.64526367187503	255.4138031005861	882.7751464843755	-90.75167083740237	316.7370910644532	863.5523071289067	-275.9427490234376	22.64203834533692	771.4277954101567	-167.7220458984376	42.70775604248048	434.2604675292971	-68.69985961914065	153.8937988281251	401.2828674316409	-101.3338012695313	41.52280044555665	391.6161804199221	-17.98239326477051	76.73053741455081	334.5550231933595	-64.40604400634768	83.40534210205081	141.3089752197266	188.2838592529297	165.8229217529297	132.3263549804688	151.9328765869141	135.6625671386719	133.5454711914063	237.0457611083986	157.0245056152344	28.59874153137208	102.9307861328126	95.77718353271487	32.7372169494629	94.44734954833987	56.52788162231448	35.95643997192384	145.6219024658204	383.6030578613282	762.630310058594	-197.8665161132814	353.4763183593751	439.6543579101565	-344.6165771484376	235.6478881835939	433.8540954589846	-360.8901367187501	357.5684814453126	372.7836303710939	-342.986053466797	307.2860107421876	379.7407531738282	-407.8255004882815	315.8941040039064	58.55962753295901	-364.3954467773439	234.8598175048829	80.14996337890628	-402.567810058594	256.758758544922	18.38848114013673	-326.0609741210939	252.2664184570314	30.41523933410646	-514.3618164062502	313.3591918945314	35.52626037597658	-512.465026855469	352.0454406738282	16.67641830444337	-458.4114379882815	226.7530364990236	1349.766845703125	-112.195655822754	206.9891967773439	1118.444091796875	-57.62725830078128	212.9398956298829	1131.458862304688	-294.3125305175782	226.8156127929689	1292.482421875	-246.1849517822267	111.0064010620118	1164.80712890625	-60.7403259277344	129.3698120117188	1295.329833984375	-76.02574157714847	26.2221088409424	1301.276000976563	-160.411361694336	48.48392868041995	1313.323120117188	-197.8943176269532	-54.01905059814456	1038.667114257813	-228.1986236572267	12.8478012084961	991.8793945312505	-198.7623901367189	-38.03491592407228	990.5275878906255	-203.9385528564454	29.18042373657228	870.8264160156255	-400.0077819824221	-45.48006057739259	850.9491577148442	-386.333435058594	38.66949844360353	821.6950073242192	-470.2902526855471	-41.48036193847658	781.574096679688	-423.3109436035159	316.5987243652345	1151.822387695313	-44.48119735717775	305.4537658691407	1275.826049804688	-69.70374298095706	412.7497253417971	1268.012573242188	-139.5008850097657	406.5780944824221	1274.016723632813	-189.5111389160157	448.6382141113284	973.9241333007817	-114.1028671264649	366.2263793945314	965.4987792968755	-98.97624969482428	411.2236328125002	959.5031127929692	-87.4443054199219	427.8564453125002	751.3460083007815	-172.5461730957032	480.055603027344	760.723815917969	-111.0891723632813	441.0700378417971	655.2133789062502	-176.2383117675782	474.1787719726565	685.0621337890627	-84.61865997314456	
